<?xml version="1.0" encoding="utf-8"?><!-- Uploaded to: SVG Repo, www.svgrepo.com, Generator: SVG Repo Mixer Tools -->
<svg version="1.1" id="Uploaded to svgrepo.com" xmlns="http://www.w3.org/2000/svg" xmlns:xlink="http://www.w3.org/1999/xlink" 
	 width="800px" height="800px" viewBox="0 0 32 32" xml:space="preserve">
<style type="text/css">
	.bentblocks_een{fill:#0B1719;}
	.st0{fill:#0B1719;}
</style>
<path class="bentblocks_een" d="M25,7V4H6v14c0,1.1,0.9,2,2,2c1.1,0,2-0.9,2-2v-4c0,1.1,0.9,2,2,2c1.1,0,2-0.9,2-2v-2h11V9
	c0.552,0,1,0.448,1,1v4c0,0.552-0.448,1-1,1h-8c-1.654,0-3,1.346-3,3c-1.1,0-2,0.9-2,2v6c0,1.1,0.9,2,2,2h2c1.1,0,2-0.9,2-2v-6
	c0-1.1-0.9-2-2-2c0-0.552,0.448-1,1-1h8c1.654,0,3-1.346,3-3v-4C28,8.346,26.654,7,25,7z M23,10h-15c0,0,0,0,0,0l0-4h15V10z M16,26
	h-2v-1h2V26z M16,23h-2v-3h2V23z"/>
</svg>